<svg width="429" height="261" viewBox="0 0 429 261" fill="none" xmlns="http://www.w3.org/2000/svg">
<path d="M24.5142 196.399L0 66.6769H24.5142L36.7713 131.538L49.0283 66.6769H73.5425L49.0283 196.399H24.5142Z" fill="#F5F8FA"/>
<path d="M86.5188 31.9115V7.52385L111.033 1.8161V26.2038L86.5188 31.9115ZM87.0404 196.399V72.3847L111.555 66.6769V196.399H87.0404Z" fill="#F5F8FA"/>
<path d="M146.305 196.399C141.089 196.399 136.569 194.583 132.744 190.95C129.093 187.318 127.267 182.821 127.267 177.459V138.283C127.267 133.094 129.093 128.684 132.744 125.052C136.569 121.247 141.089 119.344 146.305 119.344H166.646C169.428 119.344 171.688 118.479 173.427 116.749C175.339 114.847 176.295 112.598 176.295 110.004V100.405C176.295 97.8101 175.339 95.6481 173.427 93.9185C171.688 92.0159 169.428 91.0646 166.646 91.0646H138.481L143.958 66.6769H181.772C186.988 66.6769 191.421 68.5795 195.072 72.3847C198.897 76.0169 200.81 80.4274 200.81 85.6163V196.399H146.305ZM161.17 172.011H176.295V143.732H161.17C158.562 143.732 156.302 144.683 154.389 146.585C152.651 148.315 151.781 150.477 151.781 153.072V162.671C151.781 165.265 152.651 167.514 154.389 169.417C156.302 171.146 158.562 172.011 161.17 172.011Z" fill="#F5F8FA"/>
<path d="M220.597 30.0954V5.70776L245.111 0V24.3877L220.597 30.0954ZM191.128 261C185.738 261 181.218 259.184 177.567 255.552C173.916 251.919 172.09 247.422 172.09 242.061V214.041L196.604 219.489V227.272C196.604 229.694 197.474 231.856 199.212 233.758C201.125 235.661 203.472 236.612 206.254 236.612H211.209C213.99 236.612 216.25 235.661 217.989 233.758C219.728 231.856 220.597 229.694 220.597 227.272V72.1253L245.111 66.6769V242.061C245.111 247.422 243.286 251.919 239.635 255.552C235.984 259.184 231.463 261 226.074 261H191.128Z" fill="#F5F8FA"/>
<path d="M280.01 196.399C274.794 196.399 270.274 194.583 266.449 190.95C262.798 187.318 260.972 182.821 260.972 177.459V138.283C260.972 133.094 262.798 128.684 266.449 125.052C270.274 121.247 274.794 119.344 280.01 119.344H300.352C303.133 119.344 305.393 118.479 307.132 116.749C309.044 114.847 310.001 112.598 310.001 110.004V100.405C310.001 97.8101 309.044 95.6481 307.132 93.9185C305.393 92.0159 303.133 91.0646 300.352 91.0646H272.186L277.663 66.6769H315.477C320.693 66.6769 325.126 68.5795 328.778 72.3847C332.602 76.0169 334.515 80.4274 334.515 85.6163V196.399H280.01ZM294.875 172.011H310.001V143.732H294.875C292.267 143.732 290.007 144.683 288.094 146.585C286.356 148.315 285.487 150.477 285.487 153.072V162.671C285.487 165.265 286.356 167.514 288.094 169.417C290.007 171.146 292.267 172.011 294.875 172.011Z" fill="#F5F8FA"/>
<path d="M358.326 55.7803L379.45 33.9871H405.007L426.131 55.7803H400.574L392.229 46.9592L383.883 55.7803H358.326ZM374.495 196.399C369.279 196.399 364.759 194.583 360.934 190.95C357.283 187.145 355.457 182.648 355.457 177.459V85.3569C355.457 80.168 357.283 75.7575 360.934 72.1253C364.759 68.493 369.279 66.6769 374.495 66.6769H409.962C415.178 66.6769 419.612 68.493 423.263 72.1253C427.088 75.7575 429 80.168 429 85.3569V124.792C429 129.981 427.088 134.478 423.263 138.283C419.612 141.916 415.178 143.732 409.962 143.732H379.972V162.671C379.972 165.265 380.841 167.514 382.58 169.417C384.492 171.146 386.752 172.011 389.36 172.011H423.523L429 196.399H374.495ZM379.972 119.344H395.097C397.705 119.344 399.879 118.479 401.617 116.749C403.53 114.847 404.486 112.598 404.486 110.004V100.405C404.486 97.8101 403.53 95.6481 401.617 93.9185C399.879 92.0159 397.705 91.0646 395.097 91.0646H389.36C386.752 91.0646 384.492 92.0159 382.58 93.9185C380.841 95.6481 379.972 97.8101 379.972 100.405V119.344Z" fill="#F5F8FA"/>
</svg>
