<svg width="87" height="53" viewBox="0 0 87 53" fill="none" xmlns="http://www.w3.org/2000/svg">
<path d="M4.97141 39.8817L0 13.5398H4.97141L7.45711 26.7107L9.94281 13.5398H14.9142L9.94281 39.8817H4.97141Z" fill="#F5F8FA"/>
<path d="M17.5458 6.48012V1.52783L22.5172 0.368786V5.32107L17.5458 6.48012ZM17.6515 39.8817V14.6988L22.623 13.5398V39.8817H17.6515Z" fill="#F5F8FA"/>
<path d="M29.6702 39.8817C28.6124 39.8817 27.6957 39.5129 26.92 38.7753C26.1796 38.0378 25.8094 37.1246 25.8094 36.0358V28.0805C25.8094 27.0268 26.1796 26.1312 26.92 25.3936C27.6957 24.6209 28.6124 24.2346 29.6702 24.2346H33.7954C34.3595 24.2346 34.8179 24.059 35.1705 23.7078C35.5583 23.3214 35.7522 22.8648 35.7522 22.338V20.3887C35.7522 19.8618 35.5583 19.4228 35.1705 19.0716C34.8179 18.6852 34.3595 18.492 33.7954 18.492H28.0836L29.1942 13.5398H36.8629C37.9206 13.5398 38.8197 13.9261 39.5601 14.6988C40.3358 15.4364 40.7236 16.332 40.7236 17.3857V39.8817H29.6702ZM32.6848 34.9294H35.7522V29.1869H32.6848C32.1559 29.1869 31.6975 29.3801 31.3097 29.7664C30.9571 30.1176 30.7808 30.5567 30.7808 31.0835V33.0328C30.7808 33.5596 30.9571 34.0162 31.3097 34.4026C31.6975 34.7538 32.1559 34.9294 32.6848 34.9294Z" fill="#F5F8FA"/>
<path d="M44.7365 6.11133V1.15905L49.7079 0V4.95228L44.7365 6.11133ZM38.7602 53C37.6672 53 36.7505 52.6312 36.01 51.8936C35.2696 51.1561 34.8994 50.2429 34.8994 49.1541V43.4642L39.8708 44.5706V46.1511C39.8708 46.6428 40.0471 47.0818 40.3997 47.4682C40.7875 47.8545 41.2635 48.0477 41.8276 48.0477H42.8325C43.3966 48.0477 43.855 47.8545 44.2076 47.4682C44.5602 47.0818 44.7365 46.6428 44.7365 46.1511V14.6461L49.7079 13.5398V49.1541C49.7079 50.2429 49.3376 51.1561 48.5972 51.8936C47.8568 52.6312 46.9401 53 45.8471 53H38.7602Z" fill="#F5F8FA"/>
<path d="M56.7853 39.8817C55.7275 39.8817 54.8108 39.5129 54.0351 38.7753C53.2947 38.0378 52.9245 37.1246 52.9245 36.0358V28.0805C52.9245 27.0268 53.2947 26.1312 54.0351 25.3936C54.8108 24.6209 55.7275 24.2346 56.7853 24.2346H60.9105C61.4746 24.2346 61.9329 24.059 62.2855 23.7078C62.6734 23.3214 62.8673 22.8648 62.8673 22.338V20.3887C62.8673 19.8618 62.6734 19.4228 62.2855 19.0716C61.9329 18.6852 61.4746 18.492 60.9105 18.492H55.1986L56.3093 13.5398H63.9779C65.0357 13.5398 65.9348 13.9261 66.6752 14.6988C67.4509 15.4364 67.8387 16.332 67.8387 17.3857V39.8817H56.7853ZM59.7998 34.9294H62.8673V29.1869H59.7998C59.271 29.1869 58.8126 29.3801 58.4248 29.7664C58.0722 30.1176 57.8959 30.5567 57.8959 31.0835V33.0328C57.8959 33.5596 58.0722 34.0162 58.4248 34.4026C58.8126 34.7538 59.271 34.9294 59.7998 34.9294Z" fill="#F5F8FA"/>
<path d="M72.6676 11.327L76.9514 6.90159H82.1344L86.4183 11.327H81.2353L79.5429 9.53578L77.8505 11.327H72.6676ZM75.9466 39.8817C74.8888 39.8817 73.9721 39.5129 73.1964 38.7753C72.456 38.0027 72.0858 37.0895 72.0858 36.0358V17.333C72.0858 16.2793 72.456 15.3837 73.1964 14.6461C73.9721 13.9086 74.8888 13.5398 75.9466 13.5398H83.1392C84.197 13.5398 85.0961 13.9086 85.8365 14.6461C86.6122 15.3837 87 16.2793 87 17.333V25.341C87 26.3946 86.6122 27.3078 85.8365 28.0805C85.0961 28.8181 84.197 29.1869 83.1392 29.1869H77.0572V33.0328C77.0572 33.5596 77.2335 34.0162 77.5861 34.4026C77.9739 34.7538 78.4323 34.9294 78.9611 34.9294H85.8894L87 39.8817H75.9466ZM77.0572 24.2346H80.1247C80.6535 24.2346 81.0943 24.059 81.4468 23.7078C81.8347 23.3214 82.0286 22.8648 82.0286 22.338V20.3887C82.0286 19.8618 81.8347 19.4228 81.4468 19.0716C81.0943 18.6852 80.6535 18.492 80.1247 18.492H78.9611C78.4323 18.492 77.9739 18.6852 77.5861 19.0716C77.2335 19.4228 77.0572 19.8618 77.0572 20.3887V24.2346Z" fill="#F5F8FA"/>
</svg>
